<svg width="44" height="31" viewBox="0 0 44 31" fill="none" xmlns="http://www.w3.org/2000/svg">
<path d="M12.9265 10.5871C12.7884 10.6103 12.6536 10.6503 12.5251 10.7064C12.4049 10.7257 12.2865 10.7548 12.171 10.7935C11.9849 10.8557 11.8073 10.9411 11.6421 11.0477C11.3206 11.264 11.0502 11.5491 10.85 11.8829C10.5728 12.3395 10.4288 12.866 10.4345 13.4018C10.4477 13.7164 10.5412 14.0222 10.706 14.2895C10.8023 14.4444 10.9218 14.5832 11.0601 14.7011C11.365 14.9616 11.7267 15.1452 12.1155 15.2368C12.6161 15.3471 13.1362 15.3282 13.6277 15.1819C13.8231 15.1201 14.0137 15.0435 14.1978 14.9529C14.3459 14.8849 14.4822 14.7935 14.6016 14.682C14.6992 14.5853 14.7867 14.4785 14.8624 14.3634C14.9744 14.1932 15.0615 14.0076 15.121 13.8122C15.1576 13.7083 15.1868 13.6018 15.2083 13.4936C15.2815 13.1585 15.3026 12.814 15.2709 12.4723C15.2523 12.3112 15.2223 12.1518 15.1812 11.995C15.1374 11.8477 15.0813 11.7044 15.0135 11.5667C14.9547 11.4587 14.8834 11.3581 14.8011 11.2672C14.5435 10.9591 14.2051 10.7308 13.8248 10.6086C13.678 10.5688 13.527 10.5467 13.375 10.543H13.3101C13.1841 10.5481 13.0586 10.5629 12.9347 10.5871H12.9265Z" fill="#4E4E4E"/>
<path d="M30.1172 16.1084C29.9777 16.1214 29.8378 16.0979 29.6988 16.076C29.5777 16.0882 29.4548 16.1091 29.333 16.101C29.1369 16.0879 28.9428 16.05 28.7551 15.9879C28.3876 15.8584 28.0512 15.648 27.7699 15.3715C27.3818 14.9942 27.1039 14.5137 26.9682 13.9853C26.8981 13.6725 26.9078 13.3475 26.9966 13.042C27.0488 12.8647 27.1276 12.6972 27.2302 12.5455C27.4561 12.2104 27.7571 11.9362 28.1085 11.7455C28.563 11.5074 29.0703 11.3914 29.5837 11.408C29.7888 11.4183 29.9931 11.4442 30.1948 11.4858C30.3557 11.5142 30.5115 11.5689 30.6562 11.6476C30.776 11.7175 30.8886 11.7999 30.9921 11.8934C31.1452 12.0318 31.2782 12.1919 31.3871 12.3686C31.4499 12.4613 31.5062 12.5585 31.5555 12.6593C31.7145 12.9699 31.8256 13.3033 31.8851 13.6476C31.9095 13.8108 31.9226 13.9754 31.9242 14.1402C31.9207 14.2964 31.9043 14.4518 31.8751 14.6048C31.8468 14.7263 31.8044 14.8436 31.7488 14.9543C31.5811 15.324 31.3144 15.6361 30.9793 15.8548C30.848 15.9319 30.7079 15.9927 30.5621 16.0357L30.4994 16.0525C30.3763 16.0801 30.2512 16.0981 30.1251 16.1063L30.1172 16.1084Z" fill="#4E4E4E"/>
<path d="M20.2568 17.128L20.5344 17.0954L20.5352 17.0936C20.7973 17.0743 21.0606 17.0794 21.3219 17.1088C21.4382 17.1224 21.5537 17.1415 21.6676 17.1661L21.6758 17.1679L21.6841 17.1694C21.9168 17.2114 22.1446 17.2769 22.3643 17.3649C22.5848 17.4645 22.7945 17.5871 22.99 17.7306C23.1786 17.8747 23.3533 18.0367 23.5117 18.2143L23.5117 18.2143L23.513 18.2157C23.5711 18.2804 23.623 18.3505 23.668 18.4252L23.6774 18.4409L23.6879 18.4558C23.7638 18.5633 23.8267 18.6797 23.8752 18.8026C23.9298 18.9671 23.9643 19.1379 23.9778 19.3112L23.9778 19.3112L23.9781 19.3146C23.9889 19.4414 23.988 19.569 23.9756 19.6957C23.9667 19.7567 23.9582 19.8092 23.9477 19.8591L23.9459 19.8678L23.9444 19.8765C23.9279 19.972 23.9009 20.0654 23.864 20.1549C23.7991 20.2937 23.7172 20.4236 23.6203 20.5416C23.4578 20.7362 23.2584 20.8953 23.0342 21.0095L23.0328 21.0103C22.9159 21.0703 22.8006 21.1144 22.6593 21.1685C22.6055 21.189 22.548 21.211 22.4851 21.2359L22.4851 21.2359L22.4806 21.2377C22.2616 21.3269 22.0372 21.4018 21.8088 21.4622C21.6094 21.5098 21.4063 21.5394 21.2018 21.5507L21.2018 21.5506L21.1907 21.5515C20.698 21.5897 20.203 21.5306 19.7332 21.3776L19.7327 21.3774C19.548 21.3175 19.3697 21.2394 19.2002 21.1442L19.1925 21.1399L19.1848 21.1359C19.0671 21.0751 18.9568 21.0003 18.8564 20.913C18.7748 20.8411 18.6997 20.7618 18.6321 20.676C18.5904 20.6186 18.5558 20.556 18.5291 20.4896L18.4787 20.3641L18.3718 20.2812C18.2998 20.2253 18.2364 20.1585 18.1838 20.083C18.0496 19.8823 17.9861 19.6404 18.0049 19.3968L18.0055 19.3882L18.0059 19.3796C18.0132 19.2078 18.0533 19.039 18.1239 18.8827C18.2389 18.6405 18.3746 18.4089 18.5294 18.1905C18.6708 18.0044 18.8311 17.8338 19.0076 17.6815L19.0087 17.6806C19.3618 17.3742 19.7966 17.1821 20.2568 17.128ZM20.1985 16.6314C19.638 16.6973 19.1095 16.9312 18.681 17.303L20.1985 16.6314Z" fill="#FFD914" stroke="#FFD914"/>
<path d="M20.0471 0.0082518C19.5718 0.013753 19.0946 0.0201711 18.6202 0.0540951C18.0686 0.0964985 17.5201 0.172122 16.9774 0.280561C16.5238 0.367664 16.0848 0.480438 15.6385 0.584961C15.2248 0.683066 14.8121 0.786672 14.4021 0.899446C13.9258 1.03056 13.4514 1.16901 12.9761 1.30287C12.5452 1.42389 12.1243 1.57793 11.7061 1.74205C11.2526 1.91258 10.799 2.07029 10.3554 2.25733C10.0833 2.37469 9.80115 2.49479 9.53174 2.62957C9.3104 2.74051 9.09178 2.85696 8.86591 2.95781C8.46382 3.15 8.07337 3.36615 7.69663 3.60512C7.2857 3.85267 6.87024 4.10206 6.48017 4.38262C5.63111 4.99509 4.93262 5.77626 4.3185 6.6262C4.04636 6.99844 3.78692 7.37528 3.53746 7.76219C3.41954 7.94557 3.29345 8.12252 3.18006 8.31231C3.06667 8.50211 2.95328 8.71023 2.84805 8.91103C2.62218 9.34379 2.39449 9.7793 2.20399 10.2286C2.08788 10.4981 1.96633 10.7686 1.86926 11.0464C1.78853 11.2775 1.71233 11.5103 1.63795 11.7432C1.50369 12.1586 1.3776 12.5684 1.2751 12.9975C1.16261 13.4605 1.10184 13.9327 1.0202 14.4012C0.853284 15.3731 0.70633 16.3542 0.729916 17.3435C0.733654 17.8263 0.762419 18.3086 0.816092 18.7884C0.852118 19.0871 0.903592 19.3837 0.970303 19.6769C1.01838 19.8795 1.07916 20.0785 1.14356 20.2765C1.42345 21.1102 1.77842 21.9161 2.20399 22.6842C2.41534 23.0848 2.65325 23.4704 2.91608 23.8385C3.20096 24.23 3.52802 24.5883 3.89124 24.9067C4.04182 25.0387 4.19513 25.1689 4.33936 25.3083C4.48359 25.4476 4.62601 25.5925 4.77206 25.7319C5.0959 26.0408 5.42882 26.3407 5.76173 26.6377C6.06834 26.9128 6.38311 27.1741 6.69153 27.4446C7.04184 27.7602 7.42474 28.0369 7.8336 28.2698C8.06938 28.4044 8.31685 28.5171 8.57291 28.6062C8.77701 28.675 8.98474 28.7337 9.19157 28.7896C9.5771 28.9015 9.97351 28.9592 10.3636 29.0463C10.5613 29.0903 10.7609 29.127 10.9577 29.1747C11.1546 29.2224 11.3333 29.2664 11.522 29.3168C11.7106 29.3672 11.9166 29.4195 12.1179 29.4571C12.3946 29.5069 12.6739 29.5412 12.9543 29.5598C13.1766 29.5763 13.3997 29.5845 13.6229 29.5937C13.7871 29.5992 13.9503 29.5937 14.1136 29.5873C14.1815 29.6729 14.2634 29.7461 14.3558 29.8037C14.8847 30.1319 15.5242 30.2318 16.1302 30.3061C16.3588 30.3345 16.5919 30.3281 16.8214 30.3391C17.0219 30.3483 17.2205 30.3657 17.4201 30.3831C17.6487 30.4033 17.8782 30.395 18.1077 30.3996C18.3372 30.4042 18.5767 30.4106 18.8107 30.4317C19.0447 30.4528 19.2534 30.4849 19.4747 30.5069C19.7106 30.5307 19.9482 30.5436 20.185 30.5509C20.6132 30.5656 21.045 30.5509 21.4731 30.5427C21.9013 30.5344 22.3494 30.5427 22.7875 30.5473C23.2257 30.5518 23.6629 30.5601 24.1001 30.5601C24.3414 30.5601 24.5818 30.5601 24.8258 30.5445C25.1403 30.526 25.4531 30.4855 25.762 30.4235C26.6383 30.2566 27.4728 29.9302 28.3283 29.6836C28.7501 29.5616 29.1646 29.4158 29.5837 29.2856C29.786 29.2224 29.9856 29.1509 30.1879 29.0894C30.4056 29.0225 30.626 28.9638 30.8401 28.8877C31.1313 28.7832 31.4224 28.6732 31.7109 28.5586C32.0339 28.4311 32.3459 28.2835 32.667 28.146C32.9274 28.0396 33.1922 27.9479 33.4544 27.8434C33.7819 27.7141 34.103 27.5683 34.4259 27.4272C34.8668 27.2438 35.3176 27.0861 35.734 26.8532C36.1801 26.5857 36.5973 26.2716 36.9786 25.9162C37.3115 25.6246 37.6526 25.3367 37.9701 25.0286C38.3295 24.6651 38.6466 24.2612 38.9153 23.8248C39.1736 23.4446 39.402 23.0445 39.5984 22.6283C39.8185 22.1451 40.0022 21.6458 40.1481 21.1347C40.2714 20.69 40.4139 20.2527 40.5227 19.8043C40.6316 19.356 40.7268 18.8975 40.8175 18.4419C40.926 17.9001 40.9975 17.3514 41.0316 16.7997C41.0495 16.3311 41.0355 15.8618 40.9899 15.3951C40.9482 14.8505 40.8992 14.3095 40.8221 13.7686C40.7653 13.3009 40.6768 12.8377 40.5572 12.3823C40.442 11.9853 40.3077 11.5956 40.1608 11.2105C40.0075 10.8089 39.8569 10.4092 39.6936 10.0131L39.7163 10.069C39.5203 9.58951 39.3153 9.11366 39.1049 8.64055C38.9224 8.24304 38.7148 7.85777 38.4835 7.48713C37.9728 6.6427 37.4176 5.80927 36.7255 5.10328C36.3652 4.74822 35.9729 4.42806 35.5535 4.14699C35.1906 3.8921 34.8223 3.63813 34.445 3.40066C33.6299 2.89706 32.7887 2.43797 31.925 2.02536C31.4222 1.77689 30.9047 1.5598 30.3756 1.3753C29.9484 1.22952 29.5111 1.10482 29.073 0.998468C28.0992 0.77168 27.1129 0.603597 26.1194 0.495108L25.8527 0.458433C24.883 0.320903 23.9106 0.183373 22.9336 0.10819C22.4528 0.0742662 21.9748 0.0348409 21.4985 0.0128361C21.2799 0 21.0631 0 20.8472 0C20.5805 0 20.3138 0.00458433 20.048 0.0082518H20.0471ZM20.6685 1.76864C21.6032 1.77287 22.5368 1.83411 23.4643 1.95201C24.3351 2.07762 25.2023 2.22707 26.0713 2.35451C26.9957 2.49296 27.9228 2.64608 28.8308 2.86979C29.41 3.00476 29.9795 3.17937 30.5353 3.39241C31.3366 3.7451 32.1227 4.12712 32.8938 4.53849C33.6527 4.94085 34.3805 5.40059 35.0709 5.91379C35.4752 6.24664 35.8435 6.62191 36.1694 7.03329C36.5975 7.62374 36.9956 8.23577 37.3623 8.86702C37.5458 9.19217 37.7127 9.52666 37.8621 9.86915C38.0073 10.1901 38.1533 10.511 38.293 10.8346C38.4502 11.2038 38.5806 11.5841 38.6831 11.9724C38.7847 12.3832 38.8863 12.7976 38.9552 13.2148C38.9879 13.4972 39.0187 13.7805 39.0332 14.0647C39.0523 14.4186 39.0514 14.7726 39.0459 15.1274C39.0405 15.4822 39.0232 15.8242 39.0133 16.1735C39.0042 16.4669 38.9806 16.7594 38.9461 17.051C38.8926 17.403 38.8155 17.7496 38.7375 18.0971C38.6468 18.4868 38.5561 18.8765 38.4472 19.2606C38.3384 19.6448 38.2105 19.9941 38.0762 20.3609C37.9583 20.679 37.8431 20.9962 37.7134 21.3107C37.6499 21.4583 37.5836 21.605 37.5129 21.7499C37.4149 21.9498 37.3024 22.1432 37.2008 22.3431C37.0192 22.7125 36.8113 23.0679 36.5785 23.4067C36.3654 23.6634 36.1322 23.9018 35.8964 24.1402C35.6605 24.3786 35.4093 24.6179 35.1471 24.8352C34.9766 24.9589 34.8033 25.0726 34.621 25.1799C34.4137 25.2967 34.1995 25.4005 33.9796 25.4907L34.0105 25.477C33.6794 25.62 33.351 25.7695 33.0208 25.9143C32.6244 26.0739 32.218 26.2114 31.8198 26.3682C31.4215 26.525 31.017 26.6561 30.6124 26.7918C30.1833 26.9348 29.7479 27.0567 29.3161 27.1915C28.9106 27.318 28.5151 27.4721 28.1087 27.594C27.504 27.7737 26.8992 27.9476 26.2945 28.1157C25.9851 28.201 25.6767 28.2853 25.3629 28.3468C25.0907 28.4009 24.8186 28.4495 24.5465 28.4907C23.7013 28.581 22.8518 28.6223 22.002 28.6145C21.5693 28.6145 21.1366 28.6072 20.7048 28.6062C20.2469 28.6109 19.7891 28.587 19.3341 28.5347H19.3205C19.0611 28.499 18.8007 28.466 18.5395 28.4476C18.2374 28.4275 17.9344 28.4192 17.6324 28.4082C17.3847 28.399 17.1389 28.3587 16.893 28.3394C16.6472 28.3202 16.4223 28.3165 16.1882 28.2945C16.0322 28.2679 15.8762 28.2395 15.7192 28.2147C15.4952 28.1799 15.2702 28.157 15.0443 28.1304C14.9205 28.098 14.7912 28.0926 14.6652 28.1146C14.5391 28.1366 14.4191 28.1854 14.3132 28.2578C14.0184 28.201 13.7254 28.135 13.4306 28.0855C12.9829 28.0128 12.5395 27.9152 12.1025 27.793C11.698 27.6784 11.2861 27.5885 10.8806 27.4923C10.486 27.4006 10.0869 27.33 9.69502 27.2236C9.43187 27.1535 9.1724 27.0699 8.91762 26.9733C8.49012 26.772 8.08456 26.5262 7.70751 26.2398L7.79822 26.315C7.6295 26.1839 7.45805 26.0564 7.28661 25.9272C7.16052 25.8272 7.03352 25.7264 6.90561 25.6273C6.67521 25.444 6.45205 25.2459 6.23162 25.0525C5.98761 24.8388 5.7445 24.6234 5.51227 24.396C5.28005 24.1686 5.05871 23.9816 4.83737 23.7698C4.63783 23.5768 4.45116 23.3707 4.27858 23.1527C4.12528 22.94 3.97742 22.7227 3.83954 22.4981C3.71163 22.2909 3.59824 22.0727 3.47669 21.8563C3.26079 21.4584 3.0585 21.0568 2.87798 20.6423C2.76641 20.3517 2.66209 20.0601 2.5741 19.7612C2.46961 19.4078 2.3875 19.0479 2.32827 18.6839C2.27475 18.2035 2.26386 17.7185 2.25298 17.2353C2.24344 16.7309 2.26982 16.2266 2.3319 15.7261C2.3836 15.3722 2.44801 15.0201 2.51332 14.668C2.58045 14.2729 2.64576 13.874 2.73919 13.4853C2.82447 13.1131 2.92955 12.7458 3.05397 12.385C3.18369 12.0256 3.29617 11.6598 3.43224 11.3022C3.90645 10.2312 4.49634 9.21652 5.19115 8.27656L5.31271 8.1161L5.26281 8.1812C5.39042 8.01372 5.51772 7.84563 5.64471 7.67693L5.71184 7.58524L5.70277 7.59716C6.1499 7.01034 6.66112 6.4764 7.22674 6.00548C7.51974 5.79276 7.82362 5.59931 8.13386 5.40585C8.4441 5.21239 8.74254 5.02718 9.05096 4.84564C9.35938 4.6641 9.67416 4.50273 9.99346 4.34411C10.3128 4.1855 10.623 4.02963 10.945 3.88568C11.3487 3.72156 11.7614 3.57853 12.1724 3.42725C12.5833 3.27596 13.0133 3.11368 13.4423 2.99265C14.3277 2.74327 15.2094 2.48379 16.1057 2.27841C16.4132 2.20782 16.7198 2.1308 17.0291 2.06662C17.3384 2.00244 17.6559 1.94101 17.9716 1.88783C18.8692 1.79768 19.771 1.75697 20.673 1.76589L20.6685 1.76864Z" fill="#4E4E4E"/>
<path d="M2.10725 1.43335C1.98569 1.44252 1.86505 1.45811 1.7444 1.4792C1.59572 1.51435 1.45191 1.56794 1.31624 1.63873C0.997158 1.79337 0.721473 2.02631 0.514339 2.3163C0.332823 2.58137 0.196956 2.87555 0.112483 3.1864C0.0682647 3.34851 0.0379155 3.51415 0.021771 3.68151C0.0078603 3.79958 0.000591615 3.91835 0 4.03726C0.00285372 4.32882 0.0471509 4.61845 0.131533 4.89728C0.293908 5.4639 0.643151 5.92142 0.997836 6.37526C1.33359 6.78668 1.72085 7.15221 2.14988 7.46267C2.50765 7.73954 2.88822 7.98493 3.28742 8.19616C3.42399 8.28019 3.57275 8.34206 3.72828 8.37953C3.90886 8.42905 4.09923 8.42905 4.27981 8.37953C4.37782 8.36501 4.47106 8.32732 4.55195 8.26951C4.71558 8.17786 4.85043 8.04157 4.9411 7.87618C4.9411 7.86976 4.94745 7.86242 4.95017 7.85509C5.06009 7.83983 5.16459 7.79746 5.25447 7.73171C5.34434 7.66596 5.41682 7.57886 5.4655 7.4781C5.51418 7.37733 5.53757 7.266 5.5336 7.15394C5.52963 7.04187 5.49843 6.93252 5.44274 6.83553C5.40012 6.75814 5.34235 6.69035 5.27295 6.63628C5.20354 6.58221 5.12397 6.543 5.03907 6.52105C4.95834 6.50913 4.8776 6.49813 4.79778 6.48437C4.8657 6.49433 4.93483 6.49185 5.00188 6.47704C5.03254 6.47373 5.06287 6.4679 5.09259 6.45962C5.22356 6.42201 5.33525 6.33504 5.40464 6.21665C5.44468 6.1477 5.46771 6.07002 5.47177 5.99018C5.53215 5.97892 5.59015 5.95721 5.64322 5.926C5.65773 5.91683 5.67225 5.90766 5.68585 5.89758C5.82268 5.98063 5.97983 6.0232 6.13941 6.02044C6.28428 6.01751 6.42637 5.9798 6.55397 5.91041C6.62763 5.8726 6.69303 5.82022 6.74628 5.75638L6.87056 5.59593C6.90412 5.52166 6.93405 5.4474 6.96127 5.37221C6.99125 5.26964 7.00412 5.16274 6.99937 5.05589L6.9903 4.9908C6.99128 4.89217 6.97405 4.79422 6.9395 4.70198C6.91047 4.6103 6.86511 4.51861 6.82611 4.43701C6.7794 4.34394 6.72413 4.25553 6.66101 4.17295C6.56062 4.02136 6.45358 3.87894 6.33989 3.74569C6.20087 3.58613 6.04918 3.43833 5.88633 3.30376C5.72214 3.16348 5.56067 3.01862 5.39829 2.87467C5.21687 2.71605 5.03544 2.56018 4.85402 2.40707C4.6555 2.23209 4.44313 2.07386 4.21903 1.93396C3.9883 1.79733 3.74183 1.68987 3.48517 1.61398C3.26608 1.54778 3.04028 1.50687 2.81208 1.49203C2.68599 1.47003 2.55809 1.45353 2.43109 1.44252C2.35489 1.43519 2.2787 1.42969 2.20159 1.42969C2.16984 1.42969 2.13718 1.42969 2.10543 1.42969L2.10725 1.43335Z" fill="#4E4E4E"/>
<path d="M40.4764 2.06757C40.2432 2.11398 40.0143 2.18055 39.7924 2.26653C39.5222 2.37034 39.2607 2.49606 39.0104 2.64245C38.7982 2.76806 38.5932 2.90375 38.3909 3.04587C38.1568 3.20795 37.9332 3.38496 37.7214 3.57582C37.5425 3.74238 37.3786 3.92463 37.2316 4.12044C37.0156 4.39761 36.8148 4.68655 36.6302 4.98596C36.456 5.27019 36.2891 5.55808 36.1158 5.84231C36.0121 6.02789 35.9847 6.24728 36.0397 6.45306C36.0947 6.65883 36.2276 6.83448 36.4097 6.94203C36.5918 7.04958 36.8084 7.0804 37.0128 7.02783C37.2171 6.97526 37.3928 6.84351 37.5019 6.66107L37.6035 6.49237C37.6425 6.57122 37.6815 6.64915 37.7187 6.728C37.7459 6.7876 37.7722 6.8472 37.7976 6.91138C37.9051 7.17941 37.9924 7.45525 38.0589 7.73656C38.0806 8.12256 38.0543 8.50948 38.0943 8.89456C38.0943 8.87347 38.0888 8.85147 38.0852 8.83038C38.1097 9.04126 38.1142 9.16412 38.2222 9.35116C38.2881 9.4663 38.3763 9.56687 38.4815 9.64688C38.5867 9.72689 38.7067 9.78472 38.8345 9.81693C39.0328 9.87107 39.2426 9.86372 39.4368 9.79584C39.552 9.74725 39.66 9.70415 39.7697 9.64731C39.9121 9.57854 40.0482 9.50153 40.1852 9.42268C40.5088 9.22533 40.8177 9.00439 41.1095 8.76162C41.31 8.60575 41.5069 8.44805 41.6955 8.27568C41.8652 8.12073 42.0393 7.96944 42.2126 7.81724C42.3859 7.66504 42.5301 7.52018 42.6807 7.35881C42.8019 7.22435 42.916 7.08357 43.0227 6.93705C43.0998 6.83809 43.1716 6.73494 43.2377 6.62807C43.3476 6.44623 43.4449 6.2569 43.5288 6.06144C43.6567 5.79127 43.7462 5.50421 43.7946 5.20876C43.8259 5.01355 43.8411 4.81605 43.84 4.61829C43.8297 4.42079 43.8049 4.22434 43.7656 4.03058C43.7135 3.70935 43.608 3.39935 43.4535 3.11372C43.2703 2.81368 43.0222 2.55946 42.7278 2.37014C42.5654 2.27321 42.3933 2.19392 42.2144 2.13359C41.9371 2.03751 41.6466 1.98584 41.3536 1.98047C41.3145 1.98047 41.2755 1.98047 41.2365 1.98047C40.9811 1.98609 40.7268 2.01679 40.4773 2.07216L40.4764 2.06757Z" fill="#4E4E4E"/>
<path d="M5.38721 6.67642C5.2737 6.71159 5.17688 6.7876 5.11507 6.89005C4.98324 7.08076 4.84747 7.26811 4.70778 7.45209C4.5962 7.59329 4.481 7.72715 4.36579 7.86927C4.25059 8.01138 4.11905 8.14433 4.00294 8.28278C3.70233 8.64845 3.45126 9.05299 3.25638 9.4857C3.15569 9.69842 3.055 9.9148 2.93798 10.1202C2.82096 10.3256 2.70666 10.5144 2.59962 10.718C2.49984 10.9078 2.39824 11.0976 2.30934 11.2938C2.20956 11.5166 2.10887 11.7394 2.00636 11.9603C1.79169 12.4112 1.60978 12.8773 1.46209 13.3549C1.33376 13.7938 1.22929 14.2394 1.14913 14.6898C1.11194 14.898 1.06658 15.1043 1.0303 15.3124C0.978591 15.6095 0.945027 15.9093 0.914185 16.2091C0.862177 16.6914 0.828613 17.1749 0.813494 17.6596C0.780838 18.6736 0.786281 19.7253 1.14097 20.6852C1.24216 20.9704 1.36688 21.2464 1.51379 21.5104C1.6163 21.6883 1.70338 21.8772 1.81042 22.0486C2.00818 22.3732 2.21228 22.6904 2.4309 23.0067C2.49893 23.1048 2.57059 23.2002 2.64226 23.2955C2.79828 23.5037 2.95068 23.7136 3.10761 23.9209L2.97154 23.7375L3.14208 23.9603L3.14752 23.9676L3.14208 23.9612L3.26182 24.1143C3.37793 24.2738 3.49586 24.4334 3.60834 24.5957C3.72083 24.7579 3.84238 24.9175 3.96484 25.0743C4.03288 25.166 4.10091 25.2521 4.17711 25.3328C4.33586 25.5034 4.51547 25.6537 4.68056 25.8169C4.86326 25.9948 5.05589 26.1619 5.25749 26.3175L5.19853 26.2726C5.36544 26.4037 5.53054 26.5385 5.69745 26.6715C5.84622 26.7861 5.9968 26.8979 6.14647 27.0107C6.26894 27.1088 6.39412 27.2032 6.51749 27.2995L6.40682 27.2133C6.76313 27.4862 7.13509 27.7376 7.52077 27.9661C7.98648 28.2547 8.4746 28.5046 8.98033 28.7133C9.41212 28.8829 9.85842 29.0104 10.302 29.1415C10.7265 29.268 11.152 29.3927 11.572 29.5202C11.9457 29.6338 12.3222 29.7503 12.7023 29.8401C12.871 29.8805 13.0451 29.9098 13.2166 29.9392C13.4089 29.9731 13.5985 30.007 13.7899 30.0308L13.7364 30.0235C14.0747 30.0749 14.4113 30.1354 14.7514 30.172C14.8712 30.1885 14.9909 30.2041 15.1143 30.2188C15.2195 30.2344 15.3257 30.2491 15.4318 30.261C15.5379 30.2729 15.6604 30.294 15.7756 30.305C15.8908 30.316 15.9969 30.3224 16.1076 30.3334C16.3353 30.3573 16.5612 30.3738 16.7907 30.4013L16.7099 30.3893C16.9984 30.4278 17.2869 30.4572 17.5771 30.481C17.8674 30.5049 18.184 30.5296 18.4843 30.5626C19.1356 30.6332 19.7923 30.6085 20.4464 30.6231C20.5344 30.6234 20.6195 30.5913 20.6858 30.5328C20.7521 30.4744 20.7952 30.3936 20.807 30.3054C20.8187 30.2173 20.7984 30.1278 20.7497 30.0537C20.7011 29.9795 20.6275 29.9258 20.5425 29.9025C20.1416 29.82 19.7434 29.7191 19.3415 29.6476C18.9615 29.5815 18.5851 29.4955 18.2139 29.39C17.8683 29.2882 17.5209 29.1937 17.1762 29.0874C17.0111 29.037 16.8469 28.9829 16.6827 28.9315C16.529 28.8875 16.3776 28.8355 16.2292 28.7757L16.3335 28.8206C16.0695 28.7096 15.8001 28.6161 15.5334 28.5107L15.6241 28.551C15.2195 28.3814 14.8077 28.2347 14.3913 28.1018C14.0112 27.9807 13.6239 27.8835 13.2429 27.768C12.8193 27.6397 12.402 27.493 11.9793 27.3582C11.7643 27.2903 11.5557 27.2023 11.3443 27.129C11.1329 27.0556 10.9325 26.9869 10.7302 26.9089L10.576 26.8493C10.2775 26.7155 9.98089 26.5743 9.69333 26.4166C9.35497 26.2332 9.01117 26.0562 8.68461 25.8481C8.37981 25.6546 8.07139 25.4704 7.77748 25.2641C7.64413 25.1724 7.51623 25.0734 7.3847 24.9798C7.25317 24.8863 7.09714 24.7845 6.95654 24.6828L7.19511 24.8661C7.02003 24.7286 6.84314 24.5911 6.66716 24.4591C6.41045 24.25 6.16371 24.0281 5.91425 23.8108C5.67134 23.5833 5.44855 23.3348 5.24842 23.0682C4.88557 22.5859 4.54722 22.0862 4.23426 21.5728C4.0737 21.3087 3.90588 21.0492 3.75802 20.7769C3.61016 20.5046 3.47409 20.2415 3.34709 19.9673C3.23898 19.6807 3.15759 19.3845 3.10398 19.0825C3.09037 18.9542 3.07949 18.8249 3.07405 18.6956C3.06498 18.4838 3.0686 18.272 3.06588 18.0602C3.06588 17.6541 3.04955 17.2479 3.03504 16.8426C3.0102 16.12 3.03718 15.3966 3.11577 14.6779C3.15659 14.4139 3.20649 14.1516 3.25094 13.8876C3.27543 13.7381 3.31171 13.5914 3.348 13.4438C3.38428 13.2962 3.41694 13.144 3.45957 12.9964C3.63556 12.3858 3.84873 11.788 4.08005 11.1966L4.00113 11.3845C4.30138 10.6657 4.5454 9.9258 4.83659 9.20331C4.96207 8.91389 5.10381 8.63195 5.26112 8.35888C5.35183 8.20484 5.43348 8.04806 5.53326 7.90044C5.65481 7.71707 5.78635 7.54195 5.91062 7.36132C6.05395 7.15228 5.94872 6.84421 5.74462 6.71952C5.6739 6.67774 5.5934 6.6559 5.51149 6.65625C5.47012 6.65626 5.42895 6.66181 5.38903 6.67276L5.38721 6.67642ZM5.78 26.7475L5.68928 26.6751C5.65572 26.6494 5.62216 26.6238 5.5895 26.5972C5.653 26.6476 5.7165 26.698 5.7809 26.7475H5.78Z" fill="#4E4E4E"/>
</svg>
